# xmcd
#
# Track frame offsets: 
#        150
#        16014
#        33331
#        49770
#        67311
#        88159
#        106588
#        126438
#        145495
#        163078
#        180626
#
# Disc length: 2650 seconds
#
# Revision: 1
# Processed by: cddbd v1.5.2PL0 Copyright (c) Steve Scherf et al.
# Submitted via: ExactAudioCopy v1.3
#
DISCID=970a580b
DTITLE=Phil Stacey - Phil Stacey
DYEAR=2008
DGENRE=Christian
TTITLE0=It's Who You Know
TTITLE1=Looking Like Love
TTITLE2=If You Didn't Love Me
TTITLE3=No Way Around A River
TTITLE4='Round Here
TTITLE5=Be Good To Each Other
TTITLE6=Find You
TTITLE7=You Are Mine
TTITLE8=What I'm Fighting For
TTITLE9=Still Going Through
TTITLE10=Identity
EXTD=YEAR: 2008
EXTT0=
EXTT1=
EXTT2=
EXTT3=
EXTT4=
EXTT5=
EXTT6=
EXTT7=
EXTT8=
EXTT9=
EXTT10=
PLAYORDER=
